<svg width="23" height="22" viewBox="0 0 23 22" fill="none" xmlns="http://www.w3.org/2000/svg">
<g clip-path="url(#clip0_2_263)">
<path d="M16.2916 19.25V17.4167C16.2916 16.4442 15.8878 15.5116 15.1689 14.8239C14.45 14.1363 13.475 13.75 12.4583 13.75H4.79165C3.77498 13.75 2.79996 14.1363 2.08107 14.8239C1.36218 15.5116 0.958313 16.4442 0.958313 17.4167V19.25" stroke="#FAFBFF" stroke-width="2" stroke-linecap="round" stroke-linejoin="round"/>
<path d="M8.62502 10.0833C10.7421 10.0833 12.4584 8.44171 12.4584 6.41667C12.4584 4.39162 10.7421 2.75 8.62502 2.75C6.50793 2.75 4.79169 4.39162 4.79169 6.41667C4.79169 8.44171 6.50793 10.0833 8.62502 10.0833Z" stroke="#FAFBFF" stroke-width="2" stroke-linecap="round" stroke-linejoin="round"/>
<path d="M22.0417 19.25V17.4167C22.0411 16.6043 21.7584 15.8151 21.238 15.173C20.7176 14.5309 19.9891 14.0723 19.1667 13.8692" stroke="#FAFBFF" stroke-width="2" stroke-linecap="round" stroke-linejoin="round"/>
<path d="M15.3333 2.86917C16.1579 3.07112 16.8887 3.52982 17.4106 4.17296C17.9325 4.8161 18.2158 5.6071 18.2158 6.42126C18.2158 7.23541 17.9325 8.02641 17.4106 8.66956C16.8887 9.3127 16.1579 9.7714 15.3333 9.97334" stroke="#FAFBFF" stroke-width="2" stroke-linecap="round" stroke-linejoin="round"/>
</g>
<defs>
<clipPath id="clip0_2_263">
<rect width="23" height="22" fill="white"/>
</clipPath>
</defs>
</svg>
