<svg width="24" height="21" viewBox="0 0 24 21" fill="none" xmlns="http://www.w3.org/2000/svg">
<path d="M20 6.125H4C2.89543 6.125 2 6.9085 2 7.875V16.625C2 17.5915 2.89543 18.375 4 18.375H20C21.1046 18.375 22 17.5915 22 16.625V7.875C22 6.9085 21.1046 6.125 20 6.125Z" stroke="#FAFBFF" stroke-width="2" stroke-linecap="round" stroke-linejoin="round"/>
<path d="M16 18.375V4.375C16 3.91087 15.7893 3.46575 15.4142 3.13756C15.0391 2.80937 14.5304 2.625 14 2.625H10C9.46957 2.625 8.96086 2.80937 8.58579 3.13756C8.21071 3.46575 8 3.91087 8 4.375V18.375" stroke="#FAFBFF" stroke-width="2" stroke-linecap="round" stroke-linejoin="round"/>
</svg>
